<svg width="18" height="18" viewBox="0 0 18 18" fill="none" xmlns="http://www.w3.org/2000/svg">
<path d="M16.0583 0.93664H1.94167C1.78299 0.934436 1.62543 0.963513 1.47798 1.02221C1.33053 1.08091 1.19609 1.16807 1.08234 1.27873C0.968585 1.38939 0.877743 1.52138 0.815001 1.66715C0.75226 1.81292 0.718848 1.96962 0.716675 2.12831V16.4116C0.718848 16.5703 0.75226 16.727 0.815001 16.8728C0.877743 17.0186 0.968585 17.1506 1.08234 17.2612C1.19609 17.3719 1.33053 17.459 1.47798 17.5177C1.62543 17.5764 1.78299 17.6055 1.94167 17.6033H16.0583C16.217 17.6055 16.3746 17.5764 16.522 17.5177C16.6695 17.459 16.8039 17.3719 16.9177 17.2612C17.0314 17.1506 17.1223 17.0186 17.185 16.8728C17.2478 16.727 17.2812 16.5703 17.2833 16.4116V2.12831C17.2812 1.96962 17.2478 1.81292 17.185 1.66715C17.1223 1.52138 17.0314 1.38939 16.9177 1.27873C16.8039 1.16807 16.6695 1.08091 16.522 1.02221C16.3746 0.963513 16.217 0.934436 16.0583 0.93664ZM5.74167 14.8866H3.24167V7.38664H5.74167V14.8866ZM4.49167 6.33664C4.14689 6.33664 3.81623 6.19968 3.57244 5.95588C3.32864 5.71208 3.19167 5.38142 3.19167 5.03664C3.19167 4.69186 3.32864 4.3612 3.57244 4.1174C3.81623 3.8736 4.14689 3.73664 4.49167 3.73664C4.67475 3.71588 4.86016 3.73402 5.03574 3.78988C5.21132 3.84573 5.37312 3.93805 5.51056 4.06078C5.64799 4.1835 5.75795 4.33387 5.83323 4.50204C5.90852 4.67021 5.94744 4.85239 5.94744 5.03664C5.94744 5.22089 5.90852 5.40307 5.83323 5.57124C5.75795 5.73941 5.64799 5.88978 5.51056 6.01251C5.37312 6.13523 5.21132 6.22755 5.03574 6.2834C4.86016 6.33926 4.67475 6.3574 4.49167 6.33664ZM14.7583 14.8866H12.2583V10.8616C12.2583 9.85331 11.9 9.19497 10.9917 9.19497C10.7106 9.19703 10.4368 9.28521 10.2074 9.44762C9.97791 9.61003 9.80375 9.83887 9.70834 10.1033C9.64313 10.2992 9.61487 10.5055 9.62501 10.7116V14.8783H7.12501C7.12501 14.8783 7.12501 8.06164 7.12501 7.37831H9.62501V8.43664C9.85212 8.04256 10.1824 7.71791 10.5804 7.49764C10.9783 7.27738 11.4288 7.16985 11.8833 7.18664C13.55 7.18664 14.7583 8.26164 14.7583 10.57V14.8866Z" fill="#EFECE6"/>
</svg>
