<svg width="184" height="38" viewBox="0 0 184 38" fill="none" xmlns="http://www.w3.org/2000/svg">
<rect width="38" height="38" rx="8" fill="url(#paint0_linear_4111_11)"/>
<path fill-rule="evenodd" clip-rule="evenodd" d="M20.6425 31.5C21.35 31.5 21.9763 31.5025 22.5737 31.2975C23.17 31.0925 23.665 30.7062 24.2225 30.2725L24.335 30.1838L29.0875 26.4875L29.25 26.3625C30.035 25.7537 30.7337 25.2125 31.1187 24.425C31.5037 23.6375 31.5025 22.7537 31.5 21.76V12.6675C31.5 11.56 31.5 10.605 31.3975 9.84C31.2875 9.02125 31.0387 8.235 30.4013 7.59875C29.7638 6.96125 28.9787 6.7125 28.16 6.6025C27.395 6.5 26.44 6.5 25.3325 6.5H12.6675C11.56 6.5 10.605 6.5 9.84 6.6025C9.02125 6.7125 8.235 6.96125 7.59875 7.59875C6.96125 8.23625 6.7125 9.02125 6.6025 9.84C6.5 10.605 6.5 11.56 6.5 12.6675V25.3325C6.5 26.44 6.5 27.395 6.6025 28.16C6.7125 28.9787 6.96125 29.765 7.59875 30.4013C8.23625 31.0387 9.02125 31.2875 9.84 31.3975C10.605 31.5 11.56 31.5 12.6675 31.5H20.6425ZM26.5 19C26.5 18.6685 26.3683 18.3505 26.1339 18.1161C25.8995 17.8817 25.5815 17.75 25.25 17.75H19.41C18.4938 17.75 17.75 18.4938 17.75 19.41V25.25C17.75 25.5815 17.8817 25.8995 18.1161 26.1339C18.3505 26.3683 18.6685 26.5 19 26.5C19.3315 26.5 19.6495 26.3683 19.8839 26.1339C20.1183 25.8995 20.25 25.5815 20.25 25.25V20.25H25.25C25.5815 20.25 25.8995 20.1183 26.1339 19.8839C26.3683 19.6495 26.5 19.3315 26.5 19Z" fill="#EFECE6"/>
<path d="M53.296 28.1199C52.144 28.1199 51.16 27.9839 50.344 27.7119C49.544 27.4239 48.872 27.0639 48.328 26.6319C47.8 26.1839 47.376 25.7199 47.056 25.2399C46.736 24.7439 46.496 24.2799 46.336 23.8479C46.192 23.3999 46.096 23.0399 46.048 22.7679C46.016 22.4799 46 22.3359 46 22.3359H49.744C49.744 22.3359 49.776 22.4719 49.84 22.7439C49.92 23.0159 50.08 23.3359 50.32 23.7039C50.56 24.0559 50.928 24.3679 51.424 24.6399C51.92 24.8959 52.592 25.0239 53.44 25.0239C54.48 25.0239 55.248 24.8079 55.744 24.3759C56.24 23.9279 56.488 23.3999 56.488 22.7919C56.488 22.2479 56.296 21.8159 55.912 21.4959C55.544 21.1759 54.968 20.9359 54.184 20.7759L51.808 20.3199C50.848 20.1439 49.952 19.8639 49.12 19.4799C48.304 19.0959 47.64 18.5679 47.128 17.8959C46.616 17.2079 46.36 16.3279 46.36 15.2559C46.36 14.1679 46.632 13.2239 47.176 12.4239C47.72 11.6079 48.48 10.9839 49.456 10.5519C50.448 10.1039 51.608 9.87988 52.936 9.87988C54.184 9.87988 55.216 10.0639 56.032 10.4319C56.864 10.7839 57.52 11.2239 58 11.7519C58.496 12.2639 58.856 12.7839 59.08 13.3119C59.32 13.8399 59.472 14.2799 59.536 14.6319C59.616 14.9839 59.656 15.1599 59.656 15.1599H56.008C56.008 15.1599 55.976 15.0479 55.912 14.8239C55.864 14.5999 55.736 14.3439 55.528 14.0559C55.32 13.7679 55 13.5119 54.568 13.2879C54.152 13.0639 53.576 12.9519 52.84 12.9519C51.832 12.9519 51.104 13.1759 50.656 13.6239C50.208 14.0559 49.984 14.5279 49.984 15.0399C49.984 15.5679 50.208 15.9759 50.656 16.2639C51.104 16.5519 51.688 16.7679 52.408 16.9119L54.928 17.4159C55.888 17.5919 56.768 17.8879 57.568 18.3039C58.368 18.7199 59 19.2799 59.464 19.9839C59.944 20.6719 60.184 21.5279 60.184 22.5519C60.184 23.6079 59.92 24.5599 59.392 25.4079C58.864 26.2399 58.088 26.9039 57.064 27.3999C56.04 27.8799 54.784 28.1199 53.296 28.1199Z" fill="#EFECE6"/>
<path d="M61.6964 27.8799V15.1599H65.3444V16.8879H65.4644C65.7364 16.4239 66.1444 15.9839 66.6884 15.5679C67.2324 15.1359 67.9764 14.9199 68.9204 14.9199C69.8804 14.9199 70.6484 15.1439 71.2244 15.5919C71.8164 16.0399 72.2484 16.5919 72.5204 17.2479H72.5684C72.7764 16.8799 73.0484 16.5199 73.3844 16.1679C73.7364 15.7999 74.1684 15.5039 74.6804 15.2799C75.2084 15.0399 75.8244 14.9199 76.5284 14.9199C77.4084 14.9199 78.1364 15.1199 78.7124 15.5199C79.2884 15.9199 79.7124 16.4479 79.9844 17.1039C80.2724 17.7439 80.4164 18.4319 80.4164 19.1679V27.8799H76.7684V20.0799C76.7684 19.4559 76.6084 18.9439 76.2884 18.5439C75.9844 18.1279 75.5204 17.9199 74.8964 17.9199C74.4164 17.9199 74.0244 18.0399 73.7204 18.2799C73.4324 18.5199 73.2164 18.8319 73.0724 19.2159C72.9444 19.5839 72.8804 19.9679 72.8804 20.3679V27.8799H69.2324V20.0799C69.2324 19.4559 69.0724 18.9439 68.7524 18.5439C68.4484 18.1279 67.9844 17.9199 67.3604 17.9199C66.8804 17.9199 66.4884 18.0399 66.1844 18.2799C65.8964 18.5199 65.6804 18.8319 65.5364 19.2159C65.4084 19.5839 65.3444 19.9679 65.3444 20.3679V27.8799H61.6964Z" fill="#EFECE6"/>
<path d="M87.7754 14.9199C88.5914 14.9199 89.2634 15.0559 89.7914 15.3279C90.3194 15.5839 90.7194 15.8639 90.9914 16.1679C91.2794 16.4719 91.4554 16.6799 91.5194 16.7919H91.7114V15.1599H95.3594V27.8799H91.7114V26.2479H91.5194C91.4554 26.3599 91.2794 26.5679 90.9914 26.8719C90.7194 27.1759 90.3194 27.4639 89.7914 27.7359C89.2634 27.9919 88.5914 28.1199 87.7754 28.1199C86.8314 28.1199 86.0074 27.9359 85.3034 27.5679C84.6154 27.1839 84.0394 26.6799 83.5754 26.0559C83.1114 25.4159 82.7594 24.7039 82.5194 23.9199C82.2954 23.1359 82.1834 22.3359 82.1834 21.5199C82.1834 20.7039 82.2954 19.9039 82.5194 19.1199C82.7594 18.3359 83.1114 17.6319 83.5754 17.0079C84.0394 16.3679 84.6154 15.8639 85.3034 15.4959C86.0074 15.1119 86.8314 14.9199 87.7754 14.9199ZM88.8314 17.8719C88.1754 17.8719 87.6234 18.0559 87.1754 18.4239C86.7434 18.7759 86.4154 19.2319 86.1914 19.7919C85.9834 20.3519 85.8794 20.9279 85.8794 21.5199C85.8794 22.1119 85.9834 22.6879 86.1914 23.2479C86.4154 23.8079 86.7434 24.2719 87.1754 24.6399C87.6234 24.9919 88.1754 25.1679 88.8314 25.1679C89.4874 25.1679 90.0314 24.9919 90.4634 24.6399C90.9114 24.2719 91.2394 23.8079 91.4474 23.2479C91.6714 22.6879 91.7834 22.1119 91.7834 21.5199C91.7834 20.9279 91.6714 20.3519 91.4474 19.7919C91.2394 19.2319 90.9114 18.7759 90.4634 18.4239C90.0314 18.0559 89.4874 17.8719 88.8314 17.8719Z" fill="#EFECE6"/>
<path d="M97.4282 27.8799V15.1599H101.052V17.0079H101.172C101.316 16.6719 101.516 16.3439 101.772 16.0239C102.028 15.7039 102.38 15.4399 102.828 15.2319C103.276 15.0239 103.852 14.9199 104.556 14.9199C104.908 14.9199 105.188 14.9439 105.396 14.9919C105.604 15.0239 105.708 15.0399 105.708 15.0399V18.6399C105.708 18.6399 105.588 18.6159 105.348 18.5679C105.124 18.5199 104.828 18.4959 104.46 18.4959C103.324 18.4959 102.476 18.8079 101.916 19.4319C101.356 20.0399 101.076 21.0399 101.076 22.4319V27.8799H97.4282Z" fill="#EFECE6"/>
<path d="M113.066 28.1199C112.074 28.1199 111.282 27.9759 110.69 27.6879C110.098 27.3839 109.65 27.0079 109.346 26.5599C109.042 26.0959 108.842 25.6079 108.746 25.0959C108.65 24.5839 108.602 24.1119 108.602 23.6799V18.0639H106.442V15.1599H108.602V12.0159H112.25V15.1599H114.962V18.0639H112.25V23.5839C112.25 24.1119 112.386 24.5199 112.658 24.8079C112.946 25.0959 113.418 25.2399 114.074 25.2399C114.362 25.2399 114.626 25.2159 114.866 25.1679C115.106 25.1199 115.226 25.0959 115.226 25.0959V27.9039C115.226 27.9039 115.01 27.9359 114.578 27.9999C114.146 28.0799 113.642 28.1199 113.066 28.1199Z" fill="#EFECE6"/>
<path d="M117.181 27.8799V10.1199H120.565L128.221 21.4479V10.1199H131.893V27.8799H128.461L120.853 16.8639V27.8799H117.181Z" fill="#EFECE6"/>
<path d="M140.561 28.1199C139.137 28.1199 137.929 27.8159 136.937 27.2079C135.945 26.5839 135.185 25.7759 134.657 24.7839C134.145 23.7759 133.889 22.6879 133.889 21.5199C133.889 20.3519 134.145 19.2719 134.657 18.2799C135.185 17.2719 135.945 16.4639 136.937 15.8559C137.929 15.2319 139.137 14.9199 140.561 14.9199C141.985 14.9199 143.193 15.2319 144.185 15.8559C145.177 16.4639 145.929 17.2719 146.441 18.2799C146.969 19.2719 147.233 20.3519 147.233 21.5199C147.233 22.6879 146.969 23.7759 146.441 24.7839C145.929 25.7759 145.177 26.5839 144.185 27.2079C143.193 27.8159 141.985 28.1199 140.561 28.1199ZM140.561 25.1439C141.201 25.1439 141.737 24.9759 142.169 24.6399C142.617 24.3039 142.961 23.8639 143.201 23.3199C143.441 22.7599 143.561 22.1599 143.561 21.5199C143.561 20.8639 143.441 20.2639 143.201 19.7199C142.961 19.1759 142.617 18.7359 142.169 18.3999C141.737 18.0639 141.201 17.8959 140.561 17.8959C139.921 17.8959 139.377 18.0639 138.929 18.3999C138.481 18.7359 138.137 19.1759 137.897 19.7199C137.673 20.2639 137.561 20.8639 137.561 21.5199C137.561 22.1599 137.673 22.7599 137.897 23.3199C138.137 23.8639 138.481 24.3039 138.929 24.6399C139.377 24.9759 139.921 25.1439 140.561 25.1439Z" fill="#EFECE6"/>
<path d="M154.828 28.1199C153.836 28.1199 153.044 27.9759 152.452 27.6879C151.86 27.3839 151.412 27.0079 151.108 26.5599C150.804 26.0959 150.604 25.6079 150.508 25.0959C150.412 24.5839 150.364 24.1119 150.364 23.6799V18.0639H148.204V15.1599H150.364V12.0159H154.012V15.1599H156.724V18.0639H154.012V23.5839C154.012 24.1119 154.148 24.5199 154.42 24.8079C154.708 25.0959 155.18 25.2399 155.836 25.2399C156.124 25.2399 156.388 25.2159 156.628 25.1679C156.868 25.1199 156.988 25.0959 156.988 25.0959V27.9039C156.988 27.9039 156.772 27.9359 156.34 27.9999C155.908 28.0799 155.404 28.1199 154.828 28.1199Z" fill="#EFECE6"/>
<path d="M164.852 28.1199C163.732 28.1199 162.764 27.9359 161.948 27.5679C161.132 27.1839 160.46 26.6799 159.932 26.0559C159.404 25.4159 159.004 24.7039 158.732 23.9199C158.476 23.1359 158.348 22.3279 158.348 21.4959C158.348 20.6959 158.468 19.9119 158.708 19.1439C158.964 18.3599 159.348 17.6479 159.86 17.0079C160.388 16.3679 161.052 15.8639 161.852 15.4959C162.668 15.1119 163.628 14.9199 164.732 14.9199C165.9 14.9199 166.932 15.1759 167.828 15.6879C168.74 16.1999 169.452 16.9599 169.964 17.9679C170.476 18.9599 170.732 20.1679 170.732 21.5919V22.4799H162.02C162.068 23.2479 162.332 23.9119 162.812 24.4719C163.308 25.0319 163.988 25.3119 164.852 25.3119C165.348 25.3119 165.748 25.2399 166.052 25.0959C166.372 24.9359 166.62 24.7599 166.796 24.5679C166.972 24.3599 167.092 24.1759 167.156 24.0159C167.22 23.8559 167.252 23.7759 167.252 23.7759H170.612C170.612 23.7759 170.572 23.9279 170.492 24.2319C170.428 24.5199 170.284 24.8799 170.06 25.3119C169.836 25.7439 169.508 26.1759 169.076 26.6079C168.66 27.0399 168.108 27.3999 167.42 27.6879C166.732 27.9759 165.876 28.1199 164.852 28.1199ZM162.02 20.2719H167.228C167.18 19.3919 166.916 18.7359 166.436 18.3039C165.956 17.8719 165.364 17.6559 164.66 17.6559C163.956 17.6559 163.356 17.8879 162.86 18.3519C162.364 18.7999 162.084 19.4399 162.02 20.2719Z" fill="#EFECE6"/>
<path d="M177.984 28.1199C176.928 28.1199 176.056 27.9759 175.368 27.6879C174.68 27.3999 174.128 27.0479 173.712 26.6319C173.312 26.1999 173.008 25.7759 172.8 25.3599C172.608 24.9279 172.48 24.5679 172.416 24.2799C172.368 23.9919 172.344 23.8479 172.344 23.8479H175.728C175.728 23.8479 175.752 23.9279 175.8 24.0879C175.848 24.2479 175.952 24.4319 176.112 24.6399C176.288 24.8479 176.536 25.0319 176.856 25.1919C177.176 25.3519 177.608 25.4319 178.152 25.4319C178.824 25.4319 179.28 25.2959 179.52 25.0239C179.776 24.7519 179.904 24.4799 179.904 24.2079C179.904 23.6319 179.432 23.2479 178.488 23.0559L176.76 22.7199C176.024 22.5759 175.328 22.3679 174.672 22.0959C174.032 21.8079 173.512 21.4159 173.112 20.9199C172.728 20.4079 172.536 19.7519 172.536 18.9519C172.536 18.1839 172.736 17.4959 173.136 16.8879C173.536 16.2799 174.104 15.7999 174.84 15.4479C175.592 15.0959 176.488 14.9199 177.528 14.9199C178.504 14.9199 179.312 15.0559 179.952 15.3279C180.608 15.5839 181.128 15.9119 181.512 16.3119C181.896 16.6959 182.184 17.0879 182.376 17.4879C182.568 17.8719 182.688 18.1999 182.736 18.4719C182.8 18.7279 182.832 18.8559 182.832 18.8559H179.568C179.568 18.8559 179.52 18.7519 179.424 18.5439C179.328 18.3199 179.128 18.1039 178.824 17.8959C178.536 17.6719 178.088 17.5599 177.48 17.5599C176.856 17.5599 176.424 17.6879 176.184 17.9439C175.944 18.1839 175.824 18.4399 175.824 18.7119C175.824 19.0319 175.96 19.2719 176.232 19.4319C176.52 19.5919 176.888 19.7199 177.336 19.8159L178.992 20.1519C180.208 20.3919 181.208 20.8159 181.992 21.4239C182.776 22.0159 183.168 22.8799 183.168 24.0159C183.168 24.7839 182.968 25.4799 182.568 26.1039C182.168 26.7279 181.584 27.2239 180.816 27.5919C180.048 27.9439 179.104 28.1199 177.984 28.1199Z" fill="#EFECE6"/>
<defs>
<linearGradient id="paint0_linear_4111_11" x1="38" y1="0" x2="-16.004" y2="39.141" gradientUnits="userSpaceOnUse">
<stop stop-color="#AAD9D1"/>
<stop offset="1" stop-color="#017373"/>
</linearGradient>
</defs>
</svg>
