<svg width="130" height="48" viewBox="0 0 130 48" fill="none" xmlns="http://www.w3.org/2000/svg">
<g clip-path="url(#clip0_4111_202)">
<path fill-rule="evenodd" clip-rule="evenodd" d="M35.1223 20.6741C34.4645 20.2346 33.6911 20 32.9 20V16C34.4823 16 36.029 16.4692 37.3446 17.3482C38.6602 18.2273 39.6855 19.4767 40.2911 20.9385C40.8965 22.4003 41.055 24.0089 40.7463 25.5607C40.4376 27.1126 39.6757 28.538 38.5569 29.6568C37.4381 30.7757 36.0126 31.5376 34.4607 31.8463C32.9089 32.155 31.3003 31.9965 29.8385 31.391C28.3767 30.7855 27.1273 29.7602 26.2483 28.4446C25.3692 27.129 24.9 25.5822 24.9 24H28.9C28.9 24.7911 29.1346 25.5645 29.5741 26.2223C30.0137 26.8801 30.6384 27.3928 31.3693 27.6955C32.1002 27.9983 32.9045 28.0775 33.6804 27.9231C34.4563 27.7688 35.169 27.3878 35.7285 26.8284C36.2879 26.269 36.6688 25.5563 36.8231 24.7804C36.9775 24.0044 36.8983 23.2002 36.5955 22.4693C36.2928 21.7384 35.7801 21.1136 35.1223 20.6741Z" fill="#AAD9D1"/>
<path fill-rule="evenodd" clip-rule="evenodd" d="M28.9 16C28.9 16.5253 28.7966 17.0454 28.5955 17.5307C28.3945 18.016 28.0999 18.457 27.7285 18.8284C27.357 19.1999 26.9161 19.4945 26.4308 19.6955C25.9455 19.8965 25.4253 20 24.9 20L24.9 24C25.9506 24 26.9909 23.7931 27.9615 23.391C28.9321 22.989 29.814 22.3997 30.5569 21.6568C31.2997 20.914 31.889 20.0321 32.2911 19.0615C32.6931 18.0909 32.9 17.0506 32.9 16L28.9 16Z" fill="#AAD9D1"/>
<path d="M75.1476 21.781H73.2068V27.9459H75.1476V21.781Z" fill="#AAD9D1"/>
<path d="M73.4229 20.6267C73.6257 20.8296 73.8793 20.9311 74.1837 20.9311C74.4881 20.9311 74.7377 20.8296 74.9321 20.6267C75.1269 20.4153 75.2241 20.1616 75.2241 19.8656C75.2241 19.5612 75.1269 19.3074 74.9321 19.1045C74.7377 18.9015 74.4881 18.8 74.1837 18.8C73.8793 18.8 73.6257 18.9015 73.4229 19.1045C73.2281 19.3074 73.1309 19.5612 73.1309 19.8656C73.1309 20.1616 73.2281 20.4153 73.4229 20.6267Z" fill="#AAD9D1"/>
<path d="M45.3625 27.9459V18.9902H47.3541V26.1954H51.3246V27.9459H45.3625Z" fill="#AAD9D1"/>
<path fill-rule="evenodd" clip-rule="evenodd" d="M54.9109 28.0854C54.2767 28.0854 53.7017 27.9458 53.1858 27.6668C52.6784 27.3792 52.2767 26.9902 51.9807 26.4997C51.6847 26.0092 51.5367 25.4596 51.5367 24.8507C51.5367 24.2418 51.6847 23.6964 51.9807 23.2143C52.2767 22.7323 52.6784 22.3517 53.1858 22.0727C53.6932 21.7851 54.2683 21.6414 54.9109 21.6414C55.5537 21.6414 56.1287 21.7809 56.6361 22.06C57.1435 22.339 57.5452 22.7238 57.8412 23.2143C58.1372 23.6964 58.2852 24.2418 58.2852 24.8507C58.2852 25.4596 58.1372 26.0092 57.8412 26.4997C57.5452 26.9902 57.1435 27.3792 56.6361 27.6668C56.1287 27.9458 55.5537 28.0854 54.9109 28.0854ZM54.9109 26.3222C55.19 26.3222 55.4353 26.263 55.6467 26.1446C55.8581 26.0177 56.0188 25.8444 56.1287 25.6245C56.2471 25.3962 56.3063 25.1382 56.3063 24.8507C56.3063 24.5632 56.2471 24.3137 56.1287 24.1023C56.0103 23.8824 55.8454 23.7133 55.634 23.5949C55.431 23.468 55.19 23.4046 54.9109 23.4046C54.6403 23.4046 54.3993 23.468 54.1879 23.5949C53.9765 23.7133 53.8116 23.8824 53.6932 24.1023C53.5748 24.3222 53.5156 24.5758 53.5156 24.8634C53.5156 25.1424 53.5748 25.3962 53.6932 25.6245C53.8116 25.8444 53.9765 26.0177 54.1879 26.1446C54.3993 26.263 54.6403 26.3222 54.9109 26.3222Z" fill="#AAD9D1"/>
<path fill-rule="evenodd" clip-rule="evenodd" d="M59.8224 30.356C60.3382 30.5928 60.9344 30.7112 61.611 30.7112C62.2706 30.7112 62.8583 30.5801 63.3742 30.3179C63.89 30.0558 64.2959 29.6922 64.5919 29.2271C64.8879 28.7619 65.0361 28.2123 65.0361 27.578V21.7809H63.1331V22.1951C62.9916 22.076 62.8309 21.976 62.6511 21.8951C62.3213 21.7344 61.945 21.6541 61.5222 21.6541C60.9556 21.6541 60.4524 21.7894 60.0126 22.06C59.5728 22.3221 59.2262 22.6858 58.9724 23.1509C58.7187 23.6076 58.5919 24.1234 58.5919 24.6985C58.5919 25.2651 58.7187 25.7809 58.9724 26.2461C59.2262 26.7112 59.5728 27.0791 60.0126 27.3497C60.4524 27.6203 60.9556 27.7556 61.5222 27.7556C61.9365 27.7556 62.3128 27.6753 62.6511 27.5146C62.815 27.4367 62.963 27.345 63.0951 27.2394V27.6287C63.0951 28.06 62.9556 28.3941 62.6765 28.6309C62.4059 28.8677 62.0296 28.986 61.5475 28.986C61.1585 28.986 60.8245 28.9184 60.5454 28.7831C60.2748 28.6478 60.0295 28.449 59.8096 28.1869L58.6173 29.3793C58.9132 29.8021 59.315 30.1277 59.8224 30.356ZM62.5877 25.8528C62.3932 25.9712 62.1606 26.0304 61.89 26.0304C61.6194 26.0304 61.3826 25.9712 61.1796 25.8528C60.9851 25.7344 60.8329 25.5737 60.723 25.3708C60.613 25.1594 60.5581 24.9353 60.5581 24.6985C60.5581 24.4448 60.613 24.2165 60.723 24.0135C60.8329 23.8105 60.9894 23.6499 61.1923 23.5315C61.3953 23.4131 61.6278 23.3539 61.89 23.3539C62.1606 23.3539 62.3932 23.4131 62.5877 23.5315C62.7906 23.6499 62.9428 23.8105 63.0444 24.0135C63.1543 24.2165 63.2092 24.4448 63.2092 24.6985C63.2092 24.9522 63.1543 25.1805 63.0444 25.3835C62.9428 25.578 62.7906 25.7344 62.5877 25.8528Z" fill="#AAD9D1"/>
<path fill-rule="evenodd" clip-rule="evenodd" d="M69.1204 28.0854C68.486 28.0854 67.9108 27.9458 67.3952 27.6668C66.8876 27.3792 66.486 26.9902 66.19 26.4997C65.894 26.0092 65.746 25.4596 65.746 24.8507C65.746 24.2418 65.894 23.6964 66.19 23.2143C66.486 22.7323 66.8876 22.3517 67.3952 22.0727C67.9024 21.7851 68.4776 21.6414 69.1204 21.6414C69.7628 21.6414 70.338 21.7809 70.8452 22.06C71.3528 22.339 71.7544 22.7238 72.0504 23.2143C72.3464 23.6964 72.4944 24.2418 72.4944 24.8507C72.4944 25.4596 72.3464 26.0092 72.0504 26.4997C71.7544 26.9902 71.3528 27.3792 70.8452 27.6668C70.338 27.9458 69.7628 28.0854 69.1204 28.0854ZM69.1204 26.3222C69.3992 26.3222 69.6444 26.263 69.856 26.1446C70.0672 26.0177 70.228 25.8444 70.338 25.6245C70.4564 25.3962 70.5156 25.1382 70.5156 24.8507C70.5156 24.5632 70.4564 24.3137 70.338 24.1023C70.2196 23.8824 70.0548 23.7133 69.8432 23.5949C69.6404 23.468 69.3992 23.4046 69.1204 23.4046C68.8496 23.4046 68.6084 23.468 68.3972 23.5949C68.1856 23.7133 68.0208 23.8824 67.9024 24.1023C67.784 24.3222 67.7248 24.5758 67.7248 24.8634C67.7248 25.1424 67.784 25.3962 67.9024 25.6245C68.0208 25.8444 68.1856 26.0177 68.3972 26.1446C68.6084 26.263 68.8496 26.3222 69.1204 26.3222Z" fill="#AAD9D1"/>
<path fill-rule="evenodd" clip-rule="evenodd" d="M79.8125 28.0727C79.3985 28.0727 79.0177 27.9924 78.6709 27.8317C78.4885 27.7471 78.3237 27.6462 78.1765 27.5288V30.5463H76.2609V21.7809H78.2017V22.2064C78.3425 22.0913 78.4989 21.9917 78.6709 21.9078C79.0177 21.7386 79.3985 21.6541 79.8125 21.6541C80.3961 21.6541 80.9121 21.7936 81.3601 22.0727C81.8169 22.3517 82.1721 22.7323 82.4257 23.2143C82.6881 23.6964 82.8189 24.2461 82.8189 24.8634C82.8189 25.4807 82.6881 26.0304 82.4257 26.5125C82.1721 26.9945 81.8169 27.375 81.3601 27.6541C80.9121 27.9332 80.3961 28.0727 79.8125 28.0727ZM79.4577 26.3222C79.7365 26.3222 79.9777 26.2587 80.1805 26.1319C80.3921 26.0051 80.5569 25.8317 80.6753 25.6118C80.7937 25.3919 80.8529 25.1425 80.8529 24.8634C80.8529 24.5759 80.7937 24.3222 80.6753 24.1023C80.5569 23.8824 80.3921 23.7133 80.1805 23.5949C79.9777 23.468 79.7409 23.4046 79.4701 23.4046C79.1997 23.4046 78.9585 23.468 78.7473 23.5949C78.5441 23.7133 78.3837 23.8824 78.2653 24.1023C78.1469 24.3222 78.0877 24.5759 78.0877 24.8634C78.0877 25.1425 78.1425 25.3919 78.2525 25.6118C78.3709 25.8317 78.5357 26.0051 78.7473 26.1319C78.9585 26.2587 79.1953 26.3222 79.4577 26.3222Z" fill="#AAD9D1"/>
<path d="M84.7185 27.9587C85.0737 28.0518 85.4329 28.0982 85.7965 28.0982C86.5661 28.0982 87.1749 27.9207 87.6233 27.5655C88.0797 27.2103 88.3081 26.7325 88.3081 26.1321C88.3081 25.7431 88.2365 25.4302 88.0925 25.1934C87.9489 24.9482 87.7629 24.7536 87.5345 24.6099C87.3061 24.4661 87.0649 24.3519 86.8113 24.2674C86.5577 24.1828 86.3165 24.1109 86.0885 24.0517C85.8601 23.9925 85.6741 23.9249 85.5301 23.8488C85.3865 23.7726 85.3145 23.6712 85.3145 23.5443C85.3145 23.4259 85.3697 23.3371 85.4793 23.2779C85.5893 23.2103 85.7541 23.1765 85.9741 23.1765C86.2025 23.1765 86.4349 23.223 86.6717 23.316C86.9169 23.409 87.1369 23.5697 87.3313 23.798L88.4349 22.6818C88.1561 22.3266 87.7925 22.0602 87.3441 21.8826C86.9045 21.6966 86.4225 21.6035 85.8981 21.6035C85.3993 21.6035 84.9637 21.6881 84.5917 21.8572C84.2193 22.0264 83.9317 22.2589 83.7289 22.5549C83.5261 22.8424 83.4245 23.1849 83.4245 23.5824C83.4245 23.9545 83.4965 24.2632 83.6401 24.5084C83.7837 24.7452 83.9701 24.9312 84.1981 25.0665C84.4265 25.2018 84.6677 25.3076 84.9213 25.3836C85.1749 25.4598 85.4161 25.5316 85.6445 25.5993C85.8725 25.6585 86.0589 25.7304 86.2025 25.815C86.3549 25.8911 86.4309 26.0052 86.4309 26.1574C86.4309 26.2758 86.3673 26.3688 86.2405 26.4365C86.1221 26.5042 85.9489 26.538 85.7205 26.538C85.3905 26.538 85.0861 26.4788 84.8073 26.3604C84.5281 26.2336 84.2869 26.0602 84.0841 25.8403L82.9805 26.9566C83.1921 27.1849 83.4457 27.3879 83.7417 27.5655C84.0461 27.7346 84.3717 27.8657 84.7185 27.9587Z" fill="#AAD9D1"/>
<path d="M91.8472 28.0854C91.2808 28.0854 90.7776 27.9713 90.338 27.743C89.9064 27.5062 89.5684 27.1848 89.3232 26.7789C89.0776 26.3645 88.9552 25.891 88.9552 25.3582V21.781H90.896V25.3328C90.896 25.5442 90.9296 25.726 90.9976 25.8782C91.0736 26.0305 91.1836 26.1489 91.3272 26.2334C91.4712 26.318 91.6444 26.3603 91.8472 26.3603C92.1348 26.3603 92.3632 26.2715 92.5324 26.0939C92.7016 25.9078 92.786 25.6542 92.786 25.3328V21.781H94.7268V25.3455C94.7268 25.8867 94.6044 26.3645 94.3588 26.7789C94.1136 27.1848 93.7756 27.5062 93.344 27.743C92.9128 27.9713 92.414 28.0854 91.8472 28.0854Z" fill="#AAD9D1"/>
<path d="M97.6324 21.7809H95.6917V27.9459H97.6324V24.3433C97.6324 24.1319 97.6748 23.9543 97.7592 23.8105C97.8524 23.6668 97.9752 23.5568 98.1272 23.4807C98.2796 23.3961 98.4528 23.3539 98.6472 23.3539C98.9264 23.3539 99.1588 23.4427 99.3448 23.6203C99.5396 23.7894 99.6368 24.0304 99.6368 24.3433V27.9459H101.578V24.3433C101.578 24.1319 101.62 23.9543 101.704 23.8105C101.798 23.6668 101.92 23.5568 102.072 23.4807C102.224 23.3961 102.398 23.3539 102.592 23.3539C102.872 23.3539 103.104 23.4427 103.29 23.6203C103.484 23.7894 103.582 24.0304 103.582 24.3433V27.9459H105.523V24.1277C105.523 23.6118 105.413 23.1721 105.193 22.8084C104.981 22.4363 104.69 22.153 104.318 21.9585C103.954 21.7555 103.535 21.6541 103.062 21.6541C102.58 21.6541 102.144 21.7598 101.755 21.9712C101.502 22.1059 101.282 22.2797 101.092 22.4927C100.916 22.2699 100.702 22.0877 100.448 21.9458C100.11 21.7513 99.7256 21.6541 99.2944 21.6541C98.8376 21.6541 98.4277 21.7513 98.0641 21.9458C97.9057 22.0267 97.762 22.1237 97.6324 22.2366V21.7809Z" fill="#AAD9D1"/>
</g>
<defs>
<clipPath id="clip0_4111_202">
<rect width="80.8" height="16" fill="white" transform="translate(24.9 16)"/>
</clipPath>
</defs>
</svg>
