<svg width="18" height="15" viewBox="0 0 18 15" fill="none" xmlns="http://www.w3.org/2000/svg">
<path d="M17.3333 2.10328C16.7069 2.37503 16.0445 2.55467 15.3666 2.63662C16.0818 2.20938 16.6177 1.53727 16.875 0.74495C16.2029 1.145 15.4673 1.42686 14.7 1.57828C14.1871 1.02209 13.5041 0.651864 12.7581 0.52566C12.0122 0.399456 11.2454 0.524415 10.5781 0.880941C9.91082 1.23747 9.38074 1.80539 9.07099 2.49565C8.76125 3.1859 8.68937 3.95944 8.86663 4.69495C7.50781 4.62622 6.17866 4.27241 4.9655 3.6565C3.75235 3.04059 2.68233 2.17636 1.82496 1.11995C1.52424 1.64509 1.36623 2.2398 1.36663 2.84495C1.36556 3.40694 1.50347 3.96046 1.76809 4.45625C2.0327 4.95204 2.41581 5.37471 2.88329 5.68662C2.33994 5.67183 1.8082 5.52603 1.33329 5.26162V5.30328C1.33737 6.09069 1.61329 6.85253 2.11439 7.45992C2.61549 8.06732 3.31101 8.48299 4.08329 8.63662C3.78601 8.72709 3.47736 8.77479 3.16663 8.77828C2.95153 8.77577 2.73698 8.75627 2.52496 8.71995C2.74488 9.39729 3.17048 9.98924 3.74252 10.4134C4.31456 10.8376 5.00461 11.0729 5.71663 11.0866C4.5143 12.0327 3.02986 12.549 1.49996 12.5533C1.22141 12.5542 0.943072 12.5375 0.666626 12.5033C2.22865 13.5118 4.04897 14.0472 5.90829 14.045C7.19137 14.0583 8.46424 13.8158 9.65256 13.3317C10.8409 12.8476 11.9208 12.1315 12.8293 11.2254C13.7378 10.3192 14.4566 9.24111 14.9438 8.05404C15.4309 6.86697 15.6767 5.59472 15.6666 4.31162C15.6666 4.16995 15.6666 4.01995 15.6666 3.86995C16.3205 3.38229 16.8845 2.78447 17.3333 2.10328Z" fill="#EFECE6"/>
</svg>
