<svg width="20" height="14" viewBox="0 0 20 14" fill="none" xmlns="http://www.w3.org/2000/svg">
<path d="M19.1666 5.36167C19.2078 4.16888 18.947 2.98502 18.4083 1.92001C18.0428 1.483 17.5355 1.1881 16.9749 1.08667C14.6562 0.876277 12.3279 0.790043 9.99994 0.82834C7.68048 0.788305 5.36053 0.871756 3.04994 1.07834C2.59312 1.16144 2.17037 1.37571 1.83327 1.69501C1.08327 2.38667 0.999941 3.57001 0.916608 4.57001C0.795701 6.36798 0.795701 8.17204 0.916608 9.97001C0.940716 10.5328 1.02452 11.0915 1.16661 11.6367C1.26709 12.0576 1.47038 12.447 1.75827 12.77C2.09766 13.1062 2.53026 13.3327 2.99994 13.42C4.79654 13.6418 6.60679 13.7337 8.41661 13.695C11.3333 13.7367 13.8916 13.695 16.9166 13.4617C17.3978 13.3797 17.8426 13.153 18.1916 12.8117C18.4249 12.5783 18.5992 12.2926 18.6999 11.9783C18.998 11.0639 19.1443 10.1068 19.1333 9.14501C19.1666 8.67834 19.1666 5.86167 19.1666 5.36167ZM8.11661 9.64501V4.48667L13.0499 7.07834C11.6666 7.84501 9.84161 8.71167 8.11661 9.64501Z" fill="#EFECE6"/>
</svg>
